<svg width="16" height="16" viewBox="0 0 16 16" fill="none" xmlns="http://www.w3.org/2000/svg">
<g clip-path="url(#clip0)">
<path d="M15.3039 5.58184L10.8978 5.16521C10.6201 5.13996 10.3801 4.9632 10.2666 4.69807L8.68842 0.872617C8.43592 0.241354 7.5394 0.241354 7.28689 0.872617L5.72136 4.69807C5.62036 4.9632 5.36785 5.13996 5.09009 5.16521L0.683877 5.58184C0.0273629 5.64497 -0.237768 6.46561 0.254618 6.9075L3.57506 9.82393C3.78969 10.0133 3.87807 10.2911 3.81494 10.5688L2.81755 14.6593C2.66604 15.3033 3.36043 15.8334 3.9412 15.4927L7.61515 13.3336C7.85503 13.1948 8.14541 13.1948 8.38529 13.3336L12.0594 15.4927C12.6401 15.8334 13.3345 15.3159 13.1829 14.6593L12.1981 10.5688C12.135 10.2911 12.2234 10.0133 12.438 9.82393L15.7584 6.9075C16.2382 6.46561 15.9604 5.64497 15.3039 5.58184Z" fill="#FFC22B"/>
</g>
<defs>
<clipPath id="clip0">
<path d="M0 0H15.9999V16H0V0Z" fill="white"/>
</clipPath>
</defs>
</svg>
