<svg xmlns="http://www.w3.org/2000/svg" width="24" height="24" fill="none"><circle cx="12" cy="12" r="12" fill="#007AE9"/><g fill="#fff" clip-path="url(#clip0)"><path d="M17.688 16.203l-4.705-4.705L7.485 6h-.43l-.087.223c-.232.588-.33 1.19-.286 1.74.05.627.289 1.17.689 1.57l4.291 4.292.566-.566 3.968 4.436a1.065 1.065 0 001.492 0 1.056 1.056 0 000-1.492zM9.673 12.83l-3.36 3.362a1.056 1.056 0 000 1.492c.39.39 1.066.425 1.491 0l3.362-3.361-1.493-1.492zM17.49 7.998l-1.906 1.907-.498-.498 1.907-1.906-.497-.498-1.907 1.907-.498-.497 1.907-1.907-.497-.497-2.487 2.486a1.756 1.756 0 00-.512 1.138 1.013 1.013 0 01-.072.318l1.616 1.615c.102-.04.209-.066.317-.072.43-.026.834-.207 1.138-.511l2.487-2.487-.498-.498z"/></g><defs><clipPath id="clip0"><path fill="#fff" d="M6 6h12v12H6z"/></clipPath></defs></svg>