<svg xmlns="http://www.w3.org/2000/svg" width="24" height="24" fill="none"><circle cx="12" cy="12" r="12" fill="#007AE9"/><g fill="#fff" clip-path="url(#clip0)"><path d="M6.778 9.365l3.24.417c.113.287.683 1.7.79 1.953h-.002l-2.815 1.39c.325-.059.656-.089.987-.089.435 0 .86.052 1.266.155.82.208 1.56.541 2.276.864.638.287 1.242.56 1.844.716a4.2 4.2 0 00.249.058c-.714-1.463-2.634-5.403-3.014-6.27-.178-.409-.424-.56-.772-.605l-3.805-.49a.96.96 0 00-1.074.829.96.96 0 00.83 1.072z"/><path d="M5.248 16.199a.59.59 0 00.424.105.596.596 0 00.406-.242c.385-.537.982-.96 1.676-1.192.399-.132.815-.199 1.225-.199 1.482 0 2.754.887 4.093 1.397.717.273 1.465.476 2.279.476.342 0 .696-.036 1.063-.118.864-.19 1.605-.6 2.14-1.176.129-.139.245-.284.347-.44a.595.595 0 00-.992-.657c-.046.07-.097.137-.152.203-.372.443-.93.761-1.599.909-.617.135-1.298.095-1.907-.063-.64-.166-1.258-.445-1.915-.74-.7-.314-1.42-.64-2.203-.84a4.667 4.667 0 00-1.156-.14c-.537 0-1.083.087-1.602.26a4.824 4.824 0 00-1.252.629 4.27 4.27 0 00-1.013.996.599.599 0 00.138.831zM16.02 13.438a2.099 2.099 0 100-4.198 2.099 2.099 0 000 4.198z"/></g><defs><clipPath id="clip0"><path fill="#fff" d="M5 5h14v14H5z"/></clipPath></defs></svg>