<svg xmlns="http://www.w3.org/2000/svg" width="24" height="24" fill="none"><circle cx="12" cy="12" r="12" fill="#007AE9"/><g fill="#fff" clip-path="url(#clip0)"><path d="M12.033 17.268a1.635 1.635 0 100-3.271 1.635 1.635 0 000 3.27z"/><path d="M15.942 11.692c-.024-.025-.05-.047-.075-.07l-.073-.07c-.013-.012-.026-.022-.042-.034a5.336 5.336 0 00-7.37.173l-.236.238-.328.327A1.026 1.026 0 009.27 13.71l.565-.566a3.296 3.296 0 014.655 0l.408.395a1.016 1.016 0 001.735-.722 1 1 0 00-.296-.717l-.395-.407z"/><path d="M18.728 9.67l-.34-.34-.004-.004-.269-.27a.97.97 0 00-.152-.121C14.516 5.907 9.273 6 5.936 9.211c-.017.014-.035.025-.051.04l-.613.615a.933.933 0 00.004 1.32.933.933 0 001.32.004l.614-.613c.004-.005.007-.01.011-.013a7.03 7.03 0 019.7-.054l.483.484a.936.936 0 001.324-1.325z"/></g><defs><clipPath id="clip0"><path fill="#fff" d="M5 5h14v14H5z"/></clipPath></defs></svg>